<?xml version="1.0" encoding="UTF-8"?>
<svg id="_图层_1_复制" data-name="图层 1_复制" xmlns="http://www.w3.org/2000/svg" viewBox="0 0 2810.49 450">
  <defs>
    <style>
      .cls-1 {
        fill: #fff;
      }

      .cls-2 {
        fill: #ff7f00;
      }
    </style>
  </defs>
  <path class="cls-1" d="M155,354l-34,67H47L247,21l133.5,267h-75l-58.5-117.5-59,117.5-33,66ZM447,421h-74.5l-33-66.5h74l33.5,66.5Z"/>
  <path class="cls-1" d="M637.99,21v242.5l-66.5,67V21h66.5ZM837.99,354v67h-266.5l66.5-67h200Z"/>
  <path class="cls-1" d="M1045.99,354l-66.5,67V21l66.5,66v267Z"/>
  <path class="cls-1" d="M1449.99,309l66.5,22c-9,13.5-19.5,26-32,37-12,11-25,20.5-39.5,28.5-14,8-29,14-45.5,18-16,4.5-32.5,6.5-50,6.5-55.5,0-102-20-141-59s-59-85.5-59-141,19.5-102,59-141c38.5-39.5,85.5-59,141-59,27.5,0,53.5,5,78,15.5,24,10.5,45.5,25,64,43.5l-48,47c-26-26-57-39-94-39s-68,12.5-94.5,39-38.5,57.5-38.5,94,12.5,68.5,38.5,94.5,58,38.5,94.5,38.5c20,0,38.5-4,55.5-11.5,17-8,32-19,45-33.5Z"/>
  <polygon class="cls-2" points="1349.49 188 1516.49 188 1449.99 254.5 1349.49 254.5 1349.49 188"/>
  <path class="cls-1" d="M1955,21v400h-66.5v-166.5h-200v166.5h-66.5v-166.5l66.5-67h200V21h66.5Z"/>
  <path class="cls-1" d="M2331.49,21v67h-133v333h-67V21h200Z"/>
  <path class="cls-1" d="M2547.49,254.5c-32.5,0-60-11.5-82.5-34-22.5-23-34-50.5-34-83s11.5-59,34-82,50-34.5,82.5-34.5v67c-7,0-13.5,1-19.5,3.5-6.5,2.5-11.5,6-16.5,11-4.5,4.5-8,10-10.5,16s-3.5,12.5-3.5,19c0,14,4.5,25.5,14,35.5,10,10,21.5,15,36,15h99.5c32.5,0,60,11.5,82.5,34s34.5,50.5,34.5,82.5-11.5,59.5-34.5,82.5-50,34-82.5,34v-67c7,0,13.5-1,19.5-3.5,6.5-2.5,12-6,16.5-10.5s8-9.5,10.5-16c2.5-6,4-12.5,4-19.5,0-13.5-5.5-25-15-35-10-10-21.5-15-35.5-15h-99.5Z"/>
</svg>