<?xml version="1.0" encoding="UTF-8"?>
<svg id="_图层_1" data-name="图层 1" xmlns="http://www.w3.org/2000/svg" viewBox="0 0 399.52 399.18">
  <defs>
    <style>
      .cls-1 {
        fill: #fff;
      }

      .cls-2 {
        fill: #ff7f00;
      }
    </style>
  </defs>
  <path class="cls-1" d="M208.24,332.71l31.47,62.58c-15.91,3.18-32.17,4.6-48.79,3.54-16.26-.71-32.17-3.18-48.08-7.78-15.56-4.24-30.41-10.61-44.9-19.45-14.5-8.13-27.58-18.38-39.95-30.76C18.74,301.6,0,254.58,0,199.42S18.74,97.25,57.98,58C96.87,19.11,143.9-.33,199.4.02c55.15-.71,102.18,18.74,141.42,57.98,19.45,19.45,34.29,41.37,44.19,66.11,9.55,24.4,14.5,49.85,14.5,76.01l-67.18-.71c0-36.77-12.73-67.88-38.89-94.05-25.81-25.81-56.92-39.24-94.4-39.24s-67.88,13.44-93.69,39.24c-25.81,25.81-39.6,57.28-39.6,94.05s13.79,68.24,39.6,94.05c14.14,14.14,30.05,24.4,47.38,31.11,17.68,6.36,36.06,9.19,55.51,8.13Z"/>
  <polygon class="cls-2" points="289.59 228.91 334.57 317.65 245.19 288.4 199.76 198.76 289.59 228.91"/>
</svg>