<?xml version="1.0" encoding="UTF-8"?>
<svg id="_图层_1_复制_2" data-name="图层 1_复制 2" xmlns="http://www.w3.org/2000/svg" viewBox="0 0 2810.49 450">
  <defs>
    <style>
      .cls-1 {
        fill: #fff;
      }

      .cls-2 {
        fill: #ff7f00;
      }
    </style>
  </defs>
  <g>
    <path class="cls-1" d="M154.75,357.79l-34,67H46.75L246.75,24.79l133.5,267h-75l-58.5-117.5-59,117.5-33,66ZM446.75,424.79h-74.5l-33-66.5h74l33.5,66.5Z"/>
    <path class="cls-1" d="M637.74,24.79v242.5l-66.5,67V24.79h66.5ZM837.74,357.79v67h-266.5l66.5-67h200Z"/>
    <path class="cls-1" d="M1045.74,357.79l-66.5,67V24.79l66.5,66v267Z"/>
    <path class="cls-1" d="M1358.25,358.75l31.47,62.58c-15.91,3.18-32.17,4.6-48.79,3.54-16.26-.71-32.17-3.18-48.08-7.78-15.56-4.24-30.41-10.61-44.9-19.45-14.5-8.13-27.58-18.38-39.95-30.76-39.24-39.24-57.98-86.27-57.98-141.42s18.74-102.18,57.98-141.42c38.89-38.89,85.91-58.34,141.42-57.98,55.15-.71,102.18,18.74,141.42,57.98,19.45,19.45,34.29,41.37,44.19,66.11,9.55,24.4,14.5,49.85,14.5,76.01l-67.18-.71c0-36.77-12.73-67.88-38.89-94.05-25.81-25.81-56.92-39.24-94.4-39.24s-67.88,13.44-93.69,39.24c-25.81,25.81-39.6,57.28-39.6,94.05s13.79,68.24,39.6,94.05c14.14,14.14,30.05,24.4,47.38,31.11,17.68,6.36,36.06,9.19,55.51,8.13Z"/>
    <polygon class="cls-2" points="1372.74 202.12 1490.83 320.21 1396.78 320.21 1325.72 249.14 1372.74 202.12"/>
    <path class="cls-1" d="M1954.74,24.79v400h-66.5v-166.5h-200v166.5h-66.5v-166.5l66.5-67h200V24.79h66.5Z"/>
    <path class="cls-1" d="M2331.24,24.79v67h-133v333h-67V24.79h200Z"/>
    <path class="cls-1" d="M2547.24,258.29c-32.5,0-60-11.5-82.5-34-22.5-23-34-50.5-34-83s11.5-59,34-82,50-34.5,82.5-34.5v67c-7,0-13.5,1-19.5,3.5-6.5,2.5-11.5,6-16.5,11-4.5,4.5-8,10-10.5,16s-3.5,12.5-3.5,19c0,14,4.5,25.5,14,35.5,10,10,21.5,15,36,15h99.5c32.5,0,60,11.5,82.5,34,23,23,34.5,50.5,34.5,82.5s-11.5,59.5-34.5,82.5-50,34-82.5,34v-67c7,0,13.5-1,19.5-3.5,6.5-2.5,12-6,16.5-10.5s8-9.5,10.5-16c2.5-6,4-12.5,4-19.5,0-13.5-5.5-25-15-35-10-10-21.5-15-35.5-15h-99.5Z"/>
  </g>
  <g>
    <path class="cls-1" d="M2698.78,25.43v4.32h-20.96v52.8h-4.88V29.75h-20.96v-4.32h46.8Z"/>
    <path class="cls-1" d="M2712.54,25.43l22.4,50.96h.24l22.24-50.96h6.48v57.12h-4.88v-49.04h-.24l-21.44,49.04h-4.72l-21.36-49.04h-.32v49.04h-4.88V25.43h6.48Z"/>
  </g>
</svg>