<?xml version="1.0" encoding="UTF-8"?>
<svg id="_图层_1_复制_7" data-name="图层 1_复制 7" xmlns="http://www.w3.org/2000/svg" viewBox="0 0 2722.99 412.61">
  <defs>
    <style>
      .cls-1 {
        fill: #ff7900;
      }

      .cls-2 {
        fill: #fff;
      }
    </style>
  </defs>
  <g>
    <polygon id="S" class="cls-2" points="2570.18 412.61 2470.94 412.61 2420.29 346.11 2570.18 346.11 2570.18 412.61"/>
    <path id="A" class="cls-2" d="M108,345.19l-34,67H0L200,12.19l133.5,267h-75l-58.5-117.5-59,117.5-33,66ZM400,412.19h-74.5l-33-66.5h74l33.5,66.5Z"/>
    <path id="L" class="cls-2" d="M590.99,12.19v242.5l-66.5,67V12.19h66.5ZM790.99,345.19v67h-266.5l66.5-67h200Z"/>
    <path id="I" class="cls-2" d="M998.99,345.19l-66.5,67V12.19l66.5,66v267Z"/>
    <path id="H" class="cls-2" d="M1841.5,12.19h66.5v400h-66.5V12.19Z"/>
    <path id="H-2" data-name="H" class="cls-2" d="M1778.75,245.69h-137.26v166.5h-66.5v-166.5l66.5-67h137.26v67Z"/>
    <path id="T" class="cls-2" d="M2284.49,12.19v67h-133v333h-67V12.19h200Z"/>
    <path id="S-2" data-name="S" class="cls-2" d="M2500.49,245.69c-32.5,0-60-11.5-82.5-34-22.5-23-34-50.5-34-83s11.5-59,34-82,50-34.5,82.5-34.5v67c-7,0-13.5,1-19.5,3.5-6.5,2.5-11.5,6-16.5,11-4.5,4.5-8,10-10.5,16s-3.5,12.5-3.5,19c0,14,4.5,25.5,14,35.5,10,10,21.5,15,36,15h99.5c32.5,0,60,11.5,82.5,34s34.5,50.5,34.5,82.5-11.5,59.5-34.5,82.5-50,34-82.5,34v-67c7,0,13.5-1,19.5-3.5,6.5-2.5,12-6,16.5-10.5s8-9.5,10.5-16c2.5-6,4-12.5,4-19.5,0-13.5-5.5-25-15-35-10-10-21.5-15-35.5-15h-99.5Z"/>
  </g>
  <g id="_图层_1" data-name="图层 1">
    <path class="cls-2" d="M1302.68,345.03c-73.55,0-133.17-59.62-133.17-133.17s59.62-133.17,133.17-133.17,133.17,59.62,133.17,133.17h66.92c-.18-110.17-89.54-199.43-199.76-199.43s-199.76,89.44-199.76,199.76,89.26,199.58,199.43,199.76v-66.92Z"/>
    <rect class="cls-1" x="1384.14" y="293.15" width="66.92" height="66.92" transform="translate(646.15 -906.73) rotate(45)"/>
  </g>
  <g>
    <path class="cls-2" d="M2646.03,17.01v4.32h-20.96v52.8h-4.88V21.33h-20.96v-4.32h46.8Z"/>
    <path class="cls-2" d="M2659.79,17.01l22.4,50.96h.24l22.24-50.96h6.48v57.12h-4.88V25.09h-.24l-21.44,49.04h-4.72l-21.36-49.04h-.32v49.04h-4.88V17.01h6.48Z"/>
  </g>
</svg>
