<?xml version="1.0" encoding="UTF-8"?>
<svg id="_图层_1_复制" data-name="图层 1_复制" xmlns="http://www.w3.org/2000/svg" viewBox="0 0 3840 2160">
  <defs>
    <style>
      path, polygon {
        fill: #ff7f00;
      }
    </style>
  </defs>
  <path d="M669.76,1209l-34,67h-74l200-400,133.5,267h-75l-58.5-117.5-59,117.5-33,66ZM961.76,1276h-74.5l-33-66.5h74l33.5,66.5Z"/>
  <path d="M1152.75,876v242.5l-66.5,67v-309.5h66.5ZM1352.75,1209v67h-266.5l66.5-67h200Z"/>
  <path d="M1560.75,1209l-66.5,67v-400l66.5,66v267Z"/>
  <path d="M1964.75,1164l66.5,22c-9,13.5-19.5,26-32,37-12,11-25,20.5-39.5,28.5-14,8-29,14-45.5,18-16,4.5-32.5,6.5-50,6.5-55.5,0-102-20-141-59s-59-85.5-59-141,19.5-102,59-141c38.5-39.5,85.5-59,141-59,27.5,0,53.5,5,78,15.5,24,10.5,45.5,25,64,43.5l-48,47c-26-26-57-39-94-39s-68,12.5-94.5,39-38.5,57.5-38.5,94,12.5,68.5,38.5,94.5,58,38.5,94.5,38.5c20,0,38.5-4,55.5-11.5,17-8,32-19,45-33.5Z"/>
  <polygon points="1864.25 1043 2031.25 1043 1964.75 1109.5 1864.25 1109.5 1864.25 1043"/>
  <path d="M2469.75,876v400h-66.5v-166.5h-200v166.5h-66.5v-166.5l66.5-67h200v-166.5h66.5Z"/>
  <path d="M2846.25,876v67h-133v333h-67v-400h200Z"/>
  <path d="M3062.25,1109.5c-32.5,0-60-11.5-82.5-34-22.5-23-34-50.5-34-83s11.5-59,34-82,50-34.5,82.5-34.5v67c-7,0-13.5,1-19.5,3.5-6.5,2.5-11.5,6-16.5,11-4.5,4.5-8,10-10.5,16s-3.5,12.5-3.5,19c0,14,4.5,25.5,14,35.5,10,10,21.5,15,36,15h99.5c32.5,0,60,11.5,82.5,34s34.5,50.5,34.5,82.5-11.5,59.5-34.5,82.5-50,34-82.5,34v-67c7,0,13.5-1,19.5-3.5,6.5-2.5,12-6,16.5-10.5s8-9.5,10.5-16c2.5-6,4-12.5,4-19.5,0-13.5-5.5-25-15-35-10-10-21.5-15-35.5-15h-99.5Z"/>
</svg>