<?xml version="1.0" encoding="UTF-8"?>
<svg xmlns="http://www.w3.org/2000/svg" viewBox="0 0 2700 450">
  <defs>
    <style>
      .letter { fill: #ffffff; }
      .accent { fill: #ff7f00; }
      .tm { fill: #ffffff; opacity: 0.85; }
    </style>
  </defs>
  
  <!-- A - 原路径整体右移10px (dx=10) -->
  <g transform="translate(10, 0)">
    <path class="letter" d="M154.75,357.79l-34,67H46.75L246.75,24.79l133.5,267h-75l-58.5-117.5-59,117.5-33,66ZM446.75,424.79h-74.5l-33-66.5h74l33.5,66.5Z"/>
  </g>
  
  <!-- L - 保持原位 -->
  <path class="letter" d="M637.74,24.79v242.5l-66.5,67V24.79h66.5ZM837.74,357.79v67h-266.5l66.5-67h200Z"/>
  
  <!-- I - 左移15px收紧与G距离 (dx=-15) -->
  <g transform="translate(-15, 0)">
    <path class="letter" d="M1045.74,357.79l-66.5,67V24.79l66.5,66v267Z"/>
  </g>
  
  <!-- G - 保持原路径不变，只调整菱形位置使其更嵌入G内部 -->
  <g>
    <path class="letter" d="M1358.25,358.75l31.47,62.58c-15.91,3.18-32.17,4.6-48.79,3.54-16.26-.71-32.17-3.18-48.08-7.78-15.56-4.24-30.41-10.61-44.9-19.45-14.5-8.13-27.58-18.38-39.95-30.76-39.24-39.24-57.98-86.27-57.98-141.42s18.74-102.18,57.98-141.42c38.89-38.89,85.91-58.34,141.42-57.98,55.15-.71,102.18,18.74,141.42,57.98,19.45,19.45,34.29,41.37,44.19,66.11,9.55,24.4,14.5,49.85,14.5,76.01l-67.18-.71c0-36.77-12.73-67.88-38.89-94.05-25.81-25.81-56.92-39.24-94.4-39.24s-67.88,13.44-93.69,39.24c-25.81,25.81-39.6,57.28-39.6,94.05s13.79,68.24,39.6,94.05c14.14,14.14,30.05,24.4,47.38,31.11,17.68,6.36,36.06,9.19,55.51,8.13Z"/>
    <!-- 菱形：向左上偏移8px，更紧密嵌入G的圆环内部 -->
    <polygon class="accent" points="1364.74,194.12 1482.83,312.21 1388.78,312.21 1317.72,241.14 1364.74,194.12"/>
  </g>
  
  <!-- H - 保持原位 -->
  <path class="letter" d="M1954.74,24.79v400h-66.5v-166.5h-200v166.5h-66.5v-166.5l66.5-67h200V24.79h66.5Z"/>
  
  <!-- T - 保持原位 -->
  <path class="letter" d="M2331.24,24.79v67h-133v333h-67V24.79h200Z"/>
  
  <!-- S - 保持原位 -->
  <path class="letter" d="M2547.24,258.29c-32.5,0-60-11.5-82.5-34-22.5-23-34-50.5-34-83s11.5-59,34-82,50-34.5,82.5-34.5v67c-7,0-13.5,1-19.5,3.5-6.5,2.5-11.5,6-16.5,11-4.5,4.5-8,10-10.5,16s-3.5,12.5-3.5,19c0,14,4.5,25.5,14,35.5,10,10,21.5,15,36,15h99.5c32.5,0,60,11.5,82.5,34,23,23,34.5,50.5,34.5,82.5s-11.5,59.5-34.5,82.5-50,34-82.5,34v-67c7,0,13.5-1,19.5-3.5,6.5-2.5,12-6,16.5-10.5s8-9.5,10.5-16c2.5-6,4-12.5,4-19.5,0-13.5-5.5-25-15-35-10-10-21.5-15-35.5-15h-99.5Z"/>
  
  <!-- ® 标识 -->
  <path class="tm" d="M2749.94,28.28c7.2,7.2,10.8,16,10.8,26.3s-3.6,19-10.8,26.3c-7.3,7.2-16.1,10.8-26.3,10.8s-19.1-3.6-26.3-10.8c-7.2-7.3-10.8-16.1-10.8-26.3s3.6-19.1,10.8-26.3c7.2-7.2,16-10.8,26.3-10.8s19,3.6,26.3,10.8ZM2700.14,31.08c-6.5,6.4-9.7,14.3-9.7,23.5s3.2,17,9.7,23.5c6.4,6.4,14.3,9.7,23.5,9.7s17-3.3,23.5-9.7c6.4-6.5,9.7-14.3,9.7-23.5s-3.3-17.1-9.7-23.5c-6.5-6.5-14.3-9.7-23.5-9.7s-17.1,3.2-23.5,9.7ZM2725.34,32.48c4.5,0,8,1,10.6,3.2,2.6,2.1,4,5.1,4,9.1,0,5.3-2.5,8.8-7.3,10.5,2.4.8,4.2,2.2,5.2,4.4.7,1.4,1.2,3.7,1.4,6.7.4,4.8,1.3,8.3,2.8,10.3h-6.1c-1-1.9-1.6-5.1-1.9-9.5-.3-3.5-1.1-5.9-2.4-7.2-1.4-1.5-3.9-2.2-7.4-2.2h-11.8v18.9h-5.4v-44.2h18.3ZM2712.44,52.98h12.2c3.2,0,5.7-.8,7.5-2.2,1.6-1.5,2.5-3.4,2.5-5.8,0-5.2-3.4-7.8-10-7.8h-12.2v15.8Z"/>
</svg>