<svg xmlns="http://www.w3.org/2000/svg" viewBox="0 0 120 24">
  <path d="M8 4c-4 0-7 3.5-7 8s3 8 7 8c2.5 0 4.5-1.5 5.5-3.5L11 15c-.5 1.5-1.5 2.5-3 2.5-2.5 0-4.5-2.5-4.5-5.5S5.5 6.5 8 6.5c1.5 0 2.5 1 3 2.5l2.5-1.5C12.5 5.5 10.5 4 8 4zm10 0h-2.5v16H20v-2.5h-2V4zm8 0c-4 0-7 3.5-7 8s3 8 7 8 7-3.5 7-8-3-8-7-8zm0 2.5c2.5 0 4.5 2.5 4.5 5.5S28.5 17.5 26 17.5 21.5 15 21.5 12 23.5 6.5 26 6.5zM36 4v16h2.5v-5.5H41c3 0 5.5-2 5.5-5S44 4 41 4h-5zm2.5 2.5H41c1.5 0 3 1 3 2.5s-1.5 2.5-3 2.5h-2.5V6.5zM53 4v10.5c0 1.5-1.5 3-3 3s-3-1.5-3-3V4h-2.5v10.5c0 3 2.5 5.5 5.5 5.5s5.5-2.5 5.5-5.5V4H53zm8.5 0L57 20h2.5l2-5.5h5l2 5.5H71L65.5 4h-4zm1.5 3l1.5 4.5h-3L63 7zM76 4h-5v16h2.5v-5H76c3 0 5-2 5-5s-2-5-5-5v.5zm0 2.5c1.5 0 2.5 1 2.5 2.5S77.5 11.5 76 11.5h-2.5V6.5H76z" fill="#c8c8c8"/>
</svg>
